<?xml version="1.0" standalone="no"?>
<!DOCTYPE svg PUBLIC "-//W3C//DTD SVG 20010904//EN"
 "http://www.w3.org/TR/2001/REC-SVG-20010904/DTD/svg10.dtd">
<svg version="1.0" xmlns="http://www.w3.org/2000/svg"
 width="2000.000000pt" height="2000.000000pt" viewBox="0 0 2000.000000 2000.000000"
 preserveAspectRatio="xMidYMid meet">

<g transform="translate(0.000000,2000.000000) scale(0.100000,-0.100000)"
fill="#000000" stroke="none">
<path d="M5835 15033 c-2200 -641 -4003 -1168 -4006 -1171 -4 -4 73 -92 171
-195 l178 -189 7 -281 c3 -155 5 -417 3 -582 l-3 -299 -37 -9 c-55 -13 -88
-57 -88 -116 0 -26 7 -56 16 -69 18 -26 65 -52 94 -52 20 0 20 -3 20 -465 l0
-465 237 -2 237 -3 -42 -28 c-121 -79 -135 -241 -27 -322 73 -56 193 -41 236
29 21 34 25 106 9 137 -22 41 -106 63 -151 39 -10 -6 -26 -24 -35 -41 -21 -41
-4 -83 37 -98 69 -24 123 46 65 84 -29 19 -66 6 -66 -23 0 -13 3 -12 16 6 12
18 19 20 35 11 28 -14 21 -53 -9 -57 -29 -4 -52 14 -52 42 0 29 18 46 50 46
35 0 60 -29 60 -69 0 -27 -5 -34 -36 -47 -99 -41 -178 63 -105 137 l29 29 500
0 500 0 30 -25 c38 -31 47 -67 28 -104 -31 -59 -124 -65 -156 -9 -13 25 -13
29 6 55 26 35 64 41 89 13 15 -17 16 -24 7 -45 -13 -29 -52 -34 -73 -9 -11 14
-10 19 11 36 24 20 24 20 42 -2 14 -17 18 -18 18 -6 0 24 -34 38 -64 26 -20
-7 -26 -17 -26 -39 0 -35 21 -54 60 -54 68 0 94 76 44 127 -21 20 -37 26 -70
26 -121 0 -153 -155 -46 -227 18 -12 28 -24 23 -27 -5 -3 -199 -6 -431 -5
-450 1 -439 2 -440 -46 0 -45 2 -45 467 -45 427 0 443 1 453 19 14 27 13 47
-6 65 -14 15 -12 16 26 16 150 0 231 184 133 301 -15 18 -45 45 -67 60 l-39
29 379 -1 c297 0 375 -3 360 -12 -84 -52 -126 -119 -126 -198 0 -103 77 -179
181 -179 108 0 183 114 132 200 -34 58 -116 68 -164 21 -16 -16 -29 -40 -29
-53 0 -72 97 -100 130 -38 12 22 0 54 -24 63 -23 9 -56 -4 -55 -22 0 -10 2
-11 6 -3 7 18 50 15 57 -4 15 -40 -54 -62 -74 -23 -9 16 -8 26 5 45 19 30 57
32 85 4 44 -44 10 -105 -60 -105 -85 0 -123 95 -59 149 l31 26 500 0 500 0 29
-29 c59 -59 23 -146 -61 -146 -68 0 -100 52 -64 103 28 41 94 24 94 -24 0 -46
-72 -62 -78 -17 -4 30 31 49 52 27 14 -13 16 -13 16 -1 0 16 -34 29 -56 20
-21 -8 -36 -41 -29 -62 14 -44 102 -45 125 -1 28 52 -20 120 -84 120 -75 0
-116 -42 -116 -120 0 -57 57 -119 117 -127 62 -8 109 4 150 40 44 39 63 82 63
145 0 60 -41 129 -99 168 -23 15 -41 28 -41 30 0 2 170 4 377 4 l378 0 -52
-35 c-69 -46 -109 -123 -99 -192 13 -96 88 -163 181 -163 55 0 96 19 123 57
61 88 16 193 -83 193 -31 0 -49 -7 -69 -25 -51 -47 -24 -128 44 -128 59 0 83
58 36 88 -29 19 -66 6 -66 -23 0 -13 3 -12 16 6 12 18 19 20 35 11 29 -15 21
-53 -12 -57 -53 -6 -66 71 -14 84 33 8 50 1 71 -31 24 -37 7 -70 -44 -86 -97
-29 -159 75 -87 147 l24 24 506 0 506 0 24 -24 c49 -50 42 -111 -16 -142 -27
-13 -39 -14 -70 -5 -49 15 -65 42 -47 78 17 35 39 47 71 39 54 -13 43 -90 -12
-84 -33 4 -41 42 -12 57 16 9 23 7 35 -11 13 -18 16 -19 16 -6 0 29 -37 42
-66 23 -47 -30 -23 -88 36 -88 41 0 70 29 70 70 0 107 -169 114 -199 9 -16
-62 10 -127 63 -156 14 -7 26 -17 26 -22 0 -4 -194 -7 -431 -7 -453 1 -448 2
-449 -42 0 -8 6 -23 13 -32 11 -16 47 -17 456 -15 394 3 445 5 454 19 14 22 0
69 -21 70 -9 1 11 5 45 9 102 11 172 85 173 181 0 57 -47 136 -104 176 l-48
33 483 0 484 0 -43 -28 c-78 -52 -121 -136 -107 -211 29 -162 250 -209 319
-68 38 79 -13 167 -97 167 -35 0 -50 -6 -71 -26 -50 -51 -24 -127 44 -127 39
0 60 19 60 54 0 22 -6 32 -26 39 -30 12 -64 -3 -64 -28 0 -13 3 -12 16 6 12
18 19 20 35 11 28 -14 21 -53 -9 -57 -47 -7 -69 40 -34 71 27 24 58 21 81 -9
26 -33 26 -49 1 -74 -29 -29 -67 -35 -106 -16 -60 28 -68 95 -17 142 l26 24
502 0 c491 0 503 0 528 -20 54 -43 42 -127 -21 -151 -56 -22 -132 23 -115 68
20 57 84 74 105 27 16 -34 0 -59 -38 -59 -36 0 -47 37 -15 54 16 9 23 7 35
-11 13 -18 16 -19 16 -6 0 29 -37 42 -66 23 -57 -37 -3 -108 64 -84 40 14 55
53 37 96 -17 39 -42 53 -95 53 -33 0 -48 -6 -71 -29 -25 -26 -29 -37 -29 -85
0 -50 3 -59 35 -91 20 -19 40 -35 45 -35 6 0 10 -4 10 -10 0 -6 -152 -9 -412
-9 -227 0 -423 0 -434 -1 -26 0 -37 -31 -24 -66 l10 -24 443 0 c331 0 446 3
455 12 21 21 15 68 -10 77 -18 6 -9 9 39 13 47 3 69 10 98 32 43 33 74 95 75
147 0 57 -47 136 -104 176 l-48 33 458 0 459 0 -52 -35 c-69 -46 -109 -123
-99 -192 13 -96 88 -163 181 -163 102 0 170 81 144 173 -20 75 -116 104 -173
52 -51 -47 -24 -128 44 -128 59 0 83 58 36 88 -29 19 -66 6 -66 -23 0 -13 3
-12 16 6 12 18 19 20 35 11 29 -15 21 -53 -12 -57 -53 -6 -66 71 -14 84 33 8
50 1 71 -31 24 -37 7 -70 -44 -86 -32 -9 -44 -8 -71 5 -58 31 -65 92 -16 142
l24 24 506 0 506 0 24 -24 c49 -50 42 -111 -16 -142 -27 -13 -39 -14 -71 -5
-51 16 -68 49 -44 86 21 32 38 39 71 31 52 -13 39 -90 -14 -84 -33 4 -41 42
-12 57 16 9 23 7 35 -11 13 -18 16 -19 16 -6 0 29 -37 42 -66 23 -47 -30 -23
-88 36 -88 67 0 95 79 45 128 -32 32 -100 35 -138 5 -30 -24 -49 -79 -40 -122
6 -30 40 -71 83 -100 24 -16 2 -17 -395 -17 -231 0 -430 0 -441 -1 -26 0 -40
-41 -24 -70 10 -19 22 -20 453 -20 331 0 446 3 455 12 16 16 15 53 -3 71 -12
13 -7 15 40 19 90 8 165 89 165 180 0 56 -47 136 -104 175 l-48 33 483 0 484
0 -43 -28 c-108 -72 -139 -188 -76 -284 31 -48 89 -78 152 -78 125 0 195 138
112 222 -39 39 -105 40 -144 2 -50 -51 -24 -127 44 -127 59 0 83 58 36 88 -29
19 -66 6 -66 -23 0 -13 3 -12 16 6 12 18 19 20 35 11 29 -15 21 -53 -12 -57
-53 -6 -66 71 -14 84 33 8 50 1 71 -31 24 -37 7 -70 -44 -86 -98 -29 -160 78
-85 147 l26 24 504 0 504 0 24 -24 c49 -50 42 -111 -16 -142 -58 -30 -140 12
-122 63 20 57 84 74 105 27 16 -34 0 -59 -38 -59 -36 0 -47 37 -15 54 16 9 23
7 35 -11 13 -18 16 -19 16 -6 0 29 -37 42 -66 23 -56 -36 -2 -109 62 -84 36
13 44 25 44 67 0 80 -110 114 -171 53 -55 -56 -37 -162 35 -201 14 -7 26 -17
26 -22 0 -4 -194 -7 -431 -7 -452 1 -448 1 -449 -42 0 -8 6 -23 13 -32 11 -16
47 -17 456 -15 394 3 445 5 454 19 14 22 0 69 -21 70 -9 1 11 5 45 9 102 11
172 85 173 181 0 57 -47 136 -104 176 l-48 33 432 0 432 0 -48 -33 c-57 -40
-104 -119 -104 -176 1 -52 32 -114 75 -147 77 -58 201 -39 240 36 23 45 19
114 -8 145 -27 31 -100 45 -136 25 -57 -30 -56 -119 1 -139 67 -24 121 47 64
84 -29 19 -66 6 -66 -23 0 -13 3 -12 16 6 12 18 19 20 35 11 32 -17 21 -54
-15 -54 -38 0 -54 25 -38 59 20 45 95 27 102 -24 6 -38 -2 -52 -36 -66 -46
-19 -88 -10 -115 24 -27 35 -20 88 16 120 l26 22 503 0 503 0 26 -24 c51 -47
43 -114 -17 -142 -39 -19 -77 -13 -106 16 -25 25 -25 41 1 74 24 31 59 34 84
6 15 -17 16 -24 7 -46 -10 -20 -18 -25 -40 -22 -34 4 -43 41 -13 57 16 9 23 7
35 -11 13 -18 16 -19 16 -6 0 35 -61 45 -82 14 -13 -19 -9 -53 8 -66 8 -8 28
-13 44 -13 68 0 94 76 44 127 -39 38 -105 37 -144 -2 -84 -84 -14 -222 112
-222 63 0 121 30 152 78 63 95 34 206 -73 280 l-45 32 483 0 483 0 -48 -33
c-57 -40 -104 -119 -104 -176 1 -52 32 -114 75 -147 73 -56 192 -41 238 29 31
47 25 120 -12 158 -61 61 -171 27 -171 -53 0 -42 8 -54 44 -67 64 -25 118 48
62 84 -29 19 -66 6 -66 -23 0 -13 3 -12 16 6 12 18 19 20 35 11 29 -15 21 -53
-12 -57 -55 -6 -66 71 -12 84 32 8 54 -4 71 -39 18 -36 2 -63 -47 -78 -31 -9
-43 -8 -70 5 -58 31 -65 92 -16 142 l24 24 506 0 506 0 24 -24 c48 -48 41
-112 -16 -142 -27 -13 -39 -14 -71 -5 -51 16 -68 49 -44 86 21 32 38 39 71 31
52 -13 39 -90 -14 -84 -33 4 -41 42 -12 57 16 9 23 7 35 -11 13 -18 16 -19 16
-6 0 29 -37 42 -66 23 -47 -30 -23 -88 36 -88 68 0 94 76 44 127 -39 38 -105
37 -144 -2 -83 -84 -13 -222 112 -222 94 0 169 64 184 156 11 75 -30 153 -108
206 l-43 28 253 0 252 0 0 464 0 464 33 6 c64 12 104 83 86 150 -10 36 -60 86
-85 86 -12 0 -14 69 -14 459 0 253 -3 461 -8 463 -4 2 -6 59 -4 128 l4 126
163 189 c132 153 160 191 146 198 -37 17 -8015 2327 -8035 2326 -11 0 -1821
-525 -4021 -1166z m7662 -33 c2575 -747 3602 -1049 3598 -1058 -2 -6 -37 -51
-77 -98 -61 -71 -77 -84 -98 -81 -14 2 -1600 455 -3524 1006 l-3499 1003
-3541 -1018 -3540 -1017 -98 104 c-97 104 -98 104 -70 112 587 178 7196 2095
7217 2094 17 -1 1651 -473 3632 -1047z m-123 -331 c1903 -545 3467 -995 3474
-998 10 -6 8 -15 -12 -37 -16 -20 -26 -45 -28 -75 l-3 -44 -359 -3 c-198 -1
-362 2 -365 6 -7 11 -6083 1872 -6110 1872 -11 0 -598 -177 -1303 -394 -706
-217 -2082 -640 -3059 -940 l-1777 -546 -441 0 -441 0 0 42 c0 32 -6 49 -27
70 -22 24 -24 28 -10 34 49 18 6956 2002 6976 2003 13 0 1581 -445 3485 -990z
m-384 -239 c1636 -501 2977 -913 2979 -916 2 -2 -266 -4 -597 -4 l-602 0
-2401 735 -2401 736 -2394 -736 -2393 -735 -598 2 -598 3 1345 413 c740 228
1887 580 2550 784 663 204 1399 430 1635 504 305 95 440 132 465 130 19 -2
1374 -414 3010 -916z m-635 -196 c1287 -393 2342 -718 2344 -720 2 -2 -2124
-4 -4725 -3 -2601 0 -4722 3 -4714 7 8 3 1070 330 2360 727 1796 552 2351 719
2370 713 14 -4 1078 -330 2365 -724z m4455 -869 l0 -55 -727 0 c-401 0 -3444
9 -6763 20 -3319 11 -6110 20 -6202 20 l-168 0 0 35 0 35 6930 0 6930 0 0 -55z
m-725 -204 l1450 -6 3 -162 2 -163 -7650 0 -7650 0 0 170 0 170 6198 -1 c3408
-1 6850 -5 7647 -8z m1455 -506 l0 -85 -7650 0 -7650 0 0 85 0 85 7650 0 7650
0 0 -85z m-2 -242 l3 -73 -7651 0 -7650 0 0 75 0 75 7648 -2 7647 -3 3 -72z
m-15138 -558 l0 -215 -55 0 -55 0 0 215 0 215 55 0 55 0 0 -215z m410 0 l0
-215 -185 0 -185 0 0 215 0 215 185 0 185 0 0 -215z m150 0 l0 -215 -55 0 -55
0 0 215 0 215 55 0 55 0 0 -215z m155 0 l0 -210 -57 -3 -58 -3 0 216 0 216 58
-3 57 -3 0 -210z m460 0 l0 -210 -210 0 -210 0 -3 200 c-1 110 0 205 3 212 3
11 49 13 212 11 l208 -3 0 -210z m155 0 l0 -216 -57 3 -58 3 -3 200 c-1 110 0
205 2 212 4 8 25 13 61 13 l55 0 0 -215z m150 0 l0 -215 -55 0 -55 0 0 215 0
215 55 0 55 0 0 -215z m410 0 l0 -215 -185 0 -185 0 0 215 0 215 185 0 185 0
0 -215z m150 0 l0 -215 -55 0 -55 0 0 215 0 215 55 0 55 0 0 -215z m155 0 l0
-210 -57 -3 -58 -3 0 216 0 216 58 -3 57 -3 0 -210z m460 0 l0 -210 -210 0
-210 0 -3 200 c-1 110 0 205 3 212 3 11 49 13 212 11 l208 -3 0 -210z m155 0
l0 -216 -57 3 -58 3 -3 200 c-1 110 0 205 2 212 4 8 25 13 61 13 l55 0 0 -215z
m150 0 l0 -215 -55 0 -55 0 0 215 0 215 55 0 55 0 0 -215z m410 0 l0 -215
-185 0 -185 0 0 215 0 215 185 0 185 0 0 -215z m150 0 l0 -215 -55 0 -55 0 0
215 0 215 55 0 55 0 0 -215z m155 0 l0 -210 -57 -3 -58 -3 0 216 0 216 58 -3
57 -3 0 -210z m460 0 l0 -210 -210 0 -210 0 -3 200 c-1 110 0 205 3 212 3 11
49 13 212 11 l208 -3 0 -210z m155 0 l0 -216 -57 3 -58 3 -3 200 c-1 110 0
205 2 212 4 8 25 13 61 13 l55 0 0 -215z m150 0 l0 -215 -55 0 -55 0 0 215 0
215 55 0 55 0 0 -215z m410 0 l0 -215 -185 0 -185 0 0 215 0 215 185 0 185 0
0 -215z m150 0 l0 -215 -55 0 -55 0 0 215 0 215 55 0 55 0 0 -215z m155 0 l0
-210 -57 -3 -58 -3 0 216 0 216 58 -3 57 -3 0 -210z m460 0 l0 -210 -210 0
-210 0 -3 200 c-1 110 0 205 3 212 3 11 49 13 212 11 l208 -3 0 -210z m155 0
l0 -216 -57 3 -58 3 -3 200 c-1 110 0 205 2 212 4 8 25 13 61 13 l55 0 0 -215z
m150 0 l0 -215 -55 0 -55 0 0 215 0 215 55 0 55 0 0 -215z m410 0 l0 -215
-185 0 -185 0 0 215 0 215 185 0 185 0 0 -215z m150 0 l0 -215 -55 0 -55 0 0
215 0 215 55 0 55 0 0 -215z m155 0 l0 -210 -57 -3 -58 -3 0 216 0 216 58 -3
57 -3 0 -210z m460 0 l0 -210 -210 0 -210 0 -3 200 c-1 110 0 205 3 212 3 11
49 13 212 11 l208 -3 0 -210z m155 0 l0 -216 -57 3 -58 3 -3 200 c-1 110 0
205 2 212 4 8 25 13 61 13 l55 0 0 -215z m150 0 l0 -215 -55 0 -55 0 0 215 0
215 55 0 55 0 0 -215z m410 0 l0 -215 -185 0 -185 0 0 215 0 215 185 0 185 0
0 -215z m150 0 l0 -215 -55 0 -55 0 0 215 0 215 55 0 55 0 0 -215z m155 0 l0
-210 -57 -3 -58 -3 0 216 0 216 58 -3 57 -3 0 -210z m460 0 l0 -210 -210 0
-210 0 -3 200 c-1 110 0 205 3 212 3 11 49 13 212 11 l208 -3 0 -210z m155 0
l0 -216 -57 3 -58 3 -3 200 c-1 110 0 205 2 212 4 8 25 13 61 13 l55 0 0 -215z
m150 0 l0 -215 -55 0 -55 0 0 215 0 215 55 0 55 0 0 -215z m360 0 l0 -215
-160 0 -160 0 0 215 0 215 160 0 160 0 0 -215z m150 0 l0 -215 -55 0 -55 0 0
215 0 215 55 0 55 0 0 -215z m155 0 l0 -210 -57 -3 -58 -3 0 216 0 216 58 -3
57 -3 0 -210z m455 0 l0 -215 -207 2 -208 3 -3 200 c-1 110 0 205 2 212 4 10
53 13 211 13 l205 0 0 -215z m160 0 l0 -216 -57 3 -58 3 -3 200 c-1 110 0 205
2 212 4 8 25 13 61 13 l55 0 0 -215z m150 0 l0 -215 -55 0 -55 0 0 215 0 215
55 0 55 0 0 -215z m410 0 l0 -215 -185 0 -185 0 0 215 0 215 185 0 185 0 0
-215z m150 0 l0 -215 -55 0 -55 0 0 215 0 215 55 0 55 0 0 -215z m155 0 l0
-210 -57 -3 -58 -3 0 216 0 216 58 -3 57 -3 0 -210z m455 0 l0 -215 -207 2
-208 3 -3 200 c-1 110 0 205 2 212 4 10 53 13 211 13 l205 0 0 -215z m160 0
l0 -216 -57 3 -58 3 -3 200 c-1 110 0 205 2 212 4 8 25 13 61 13 l55 0 0 -215z
m150 0 l0 -215 -55 0 -55 0 0 215 0 215 55 0 55 0 0 -215z m410 0 l0 -215
-185 0 -185 0 0 215 0 215 185 0 185 0 0 -215z m150 0 l0 -215 -55 0 -55 0 0
215 0 215 55 0 55 0 0 -215z m155 0 l0 -210 -57 -3 -58 -3 0 216 0 216 58 -3
57 -3 0 -210z m455 0 l0 -215 -207 2 -208 3 -3 200 c-1 110 0 205 2 212 4 10
53 13 211 13 l205 0 0 -215z m160 0 l0 -216 -57 3 -58 3 -3 200 c-1 110 0 205
2 212 4 8 25 13 61 13 l55 0 0 -215z m150 0 l0 -215 -55 0 -55 0 0 215 0 215
55 0 55 0 0 -215z m410 0 l0 -215 -185 0 -185 0 0 215 0 215 185 0 185 0 0
-215z m150 0 l0 -215 -55 0 -55 0 0 215 0 215 55 0 55 0 0 -215z m155 0 l0
-210 -57 -3 -58 -3 0 216 0 216 58 -3 57 -3 0 -210z m455 0 l0 -215 -207 2
-208 3 -3 200 c-1 110 0 205 2 212 4 10 53 13 211 13 l205 0 0 -215z m160 0
l0 -216 -57 3 -58 3 -3 200 c-1 110 0 205 2 212 4 8 25 13 61 13 l55 0 0 -215z
m150 0 l0 -215 -55 0 -55 0 0 215 0 215 55 0 55 0 0 -215z m370 0 l0 -215
-165 0 -165 0 0 215 0 215 165 0 165 0 0 -215z m0 -315 l0 -50 -7640 0 -7640
0 0 43 c0 24 3 47 7 50 3 4 3441 7 7640 7 l7633 0 0 -50z m0 -140 l0 -30
-7637 2 -7638 3 -3 28 -3 27 7640 0 7641 0 0 -30z m-195 -130 l0 -45 -7482 -3
-7483 -2 0 50 0 50 7483 -2 7482 -3 0 -45z"/>
<path d="M8328 14182 c-856 -246 -1555 -448 -1553 -450 3 -4 6508 -32 6512
-29 4 5 -3365 927 -3382 926 -11 0 -721 -202 -1577 -447z"/>
<path d="M2870 10845 l0 -55 305 0 305 0 0 55 0 55 -305 0 -305 0 0 -55z"/>
<path d="M4658 10890 c-2 -6 -2 -31 0 -55 l4 -45 302 2 301 3 3 53 3 52 -305
0 c-197 0 -306 -4 -308 -10z"/>
<path d="M6442 10848 l3 -53 303 -3 c329 -3 304 -7 304 53 0 14 0 32 -1 40 -1
13 -42 15 -307 15 l-305 0 3 -52z"/>
<path d="M8434 10886 c-3 -8 -4 -31 -2 -52 l3 -39 301 -3 302 -2 3 32 c2 18 3
43 1 56 l-3 22 -300 0 c-247 0 -301 -2 -305 -14z"/>
<path d="M10372 10848 l3 -53 303 -3 302 -2 0 55 0 55 -306 0 -305 0 3 -52z"/>
<path d="M12364 10886 c-3 -8 -4 -31 -2 -52 l3 -39 301 -3 302 -2 3 38 c8 78
32 72 -302 72 -247 0 -301 -2 -305 -14z"/>
<path d="M14250 10845 l0 -55 304 0 304 0 3 33 c2 17 3 42 1 55 l-3 22 -305 0
-304 0 0 -55z"/>
<path d="M16240 10845 l0 -55 305 0 305 0 0 55 0 55 -305 0 -305 0 0 -55z"/>
<path d="M4570 10740 c-48 -5 -57 -19 -46 -66 l6 -24 453 2 452 3 3 38 c2 27
-1 39 -13 43 -19 8 -792 11 -855 4z"/>
<path d="M14193 10742 c-67 -3 -73 -5 -79 -27 -3 -13 -1 -33 6 -44 11 -21 14
-21 453 -21 465 0 467 0 467 45 -1 47 5 46 -396 48 -208 1 -412 1 -451 -1z"/>
<path d="M16113 10732 c-16 -16 -17 -37 -3 -63 10 -18 26 -19 453 -19 465 0
467 0 467 44 -1 49 11 48 -460 49 -356 2 -446 -1 -457 -11z"/>
<path d="M2807 10602 c-11 -2 -17 -13 -17 -33 l0 -29 180 0 c99 -1 230 -1 290
-1 61 0 160 0 220 1 l110 0 0 30 c0 22 -5 30 -17 30 -522 4 -753 4 -766 2z"/>
<path d="M4584 10597 c-16 -9 -19 -43 -4 -52 7 -4 592 -8 778 -5 19 0 23 5 20
28 l-3 27 -388 5 c-214 3 -395 1 -403 -3z"/>
<path d="M6743 10602 l-383 -2 0 -25 c0 -13 4 -27 10 -30 17 -11 781 -8 792 3
15 15 5 44 -17 51 -11 3 -192 5 -402 3z"/>
<path d="M10300 10596 c-6 -6 -10 -20 -10 -33 0 -19 5 -23 33 -23 274 -3 759
0 767 5 13 8 13 42 0 50 -17 10 -780 11 -790 1z"/>
<path d="M12670 10600 l-385 -5 -3 -27 c-3 -25 0 -28 25 -28 393 -3 765 0 773
5 16 10 12 44 -7 52 -10 4 -191 6 -403 3z"/>
<path d="M14198 10602 c-24 -3 -28 -8 -28 -33 l0 -29 90 0 c50 -1 218 -1 375
-1 157 0 296 0 310 1 21 0 25 5 25 30 l0 30 -372 2 c-205 2 -385 2 -400 0z"/>
<path d="M16188 10602 c-24 -3 -28 -8 -28 -33 0 -21 5 -29 18 -29 9 -1 188 0
397 0 370 0 395 2 395 30 0 29 -23 31 -386 33 -203 1 -381 1 -396 -1z"/>
<path d="M8357 10593 c-10 -10 -8 -41 3 -48 16 -10 783 -6 793 4 5 5 7 17 5
27 -3 18 -23 19 -399 22 -217 1 -398 -1 -402 -5z"/>
<path d="M2903 10493 c-10 -4 -13 -517 -13 -2524 l0 -2519 30 0 30 0 0 2519
c0 2390 -1 2519 -17 2523 -10 3 -24 3 -30 1z"/>
<path d="M2998 10492 c-17 -3 -18 -132 -18 -2523 l0 -2519 30 0 30 0 0 2519
c0 2006 -3 2520 -12 2523 -7 2 -21 3 -30 0z"/>
<path d="M3085 10490 c-4 -6 -7 -3613 -5 -5012 0 -24 4 -28 30 -28 l30 0 0
2519 0 2519 -25 4 c-14 3 -28 2 -30 -2z"/>
<path d="M3193 10492 l-23 -3 0 -2510 c0 -1380 -1 -2512 -2 -2516 -2 -5 12 -9
30 -11 l32 -3 0 2520 c0 1386 -3 2521 -7 2523 -5 2 -18 2 -30 0z"/>
<path d="M3264 10491 c-2 -2 -4 -1138 -4 -2523 l0 -2518 30 0 30 0 0 2523 0
2522 -26 0 c-14 0 -28 -2 -30 -4z"/>
<path d="M4703 10492 l-23 -3 0 -2520 0 -2519 30 0 30 0 0 2519 c0 1386 -3
2521 -7 2523 -5 2 -18 2 -30 0z"/>
<path d="M4770 7973 l0 -2523 30 0 30 0 0 2523 0 2522 -30 0 -30 0 0 -2522z"/>
<path d="M4865 10492 c-3 -3 -5 -1139 -5 -2524 l0 -2518 30 0 30 0 0 2519 0
2519 -25 4 c-13 3 -27 3 -30 0z"/>
<path d="M5048 8001 c-2 -1373 -2 -2508 0 -2523 3 -24 8 -28 33 -28 l29 0 0
2519 0 2519 -30 4 -30 5 -2 -2496z"/>
<path d="M5235 10492 c-3 -3 -5 -1139 -5 -2524 l0 -2518 30 0 30 0 0 2519 0
2519 -25 4 c-13 3 -27 3 -30 0z"/>
<path d="M6483 10492 l-23 -3 0 -2520 0 -2519 30 0 c26 0 30 4 30 28 3 1838
-2 5008 -8 5012 -4 3 -17 4 -29 2z"/>
<path d="M6573 10493 c-10 -4 -13 -517 -13 -2524 l0 -2519 30 0 30 0 0 2519
c0 2390 -1 2519 -17 2523 -10 3 -24 3 -30 1z"/>
<path d="M6668 10492 c-17 -3 -18 -132 -18 -2523 l0 -2519 30 0 30 0 0 2519
c0 2006 -3 2520 -12 2523 -7 2 -21 3 -30 0z"/>
<path d="M6830 7972 l0 -2523 30 3 30 3 3 2517 2 2516 -32 4 -33 4 0 -2524z"/>
<path d="M6948 10492 l-28 -3 0 -2520 0 -2519 35 0 35 0 0 2519 c0 1386 -3
2521 -7 2523 -5 2 -20 2 -35 0z"/>
<path d="M7025 10493 c-7 -2 -9 -906 -8 -2495 2 -1371 3 -2505 3 -2520 0 -24
4 -28 30 -28 l30 0 0 2519 0 2519 -23 4 c-12 2 -27 3 -32 1z"/>
<path d="M8555 10493 c-6 -2 -9 -930 -8 -2520 l3 -2518 30 -3 30 -3 -2 2522
-3 2522 -20 2 c-12 1 -25 0 -30 -2z"/>
<path d="M8743 10493 c-10 -4 -13 -517 -13 -2524 l0 -2519 30 0 30 0 0 2519
c0 2390 -1 2519 -17 2523 -10 3 -24 3 -30 1z"/>
<path d="M8928 10492 c-17 -3 -18 -132 -18 -2523 l0 -2519 35 0 35 0 0 2519
c0 2390 -1 2519 -17 2523 -10 2 -26 2 -35 0z"/>
<path d="M9038 10493 l-28 -4 0 -2510 c0 -1380 -1 -2512 -2 -2516 -2 -5 12 -9
30 -11 l32 -3 0 2525 c0 1389 -1 2525 -2 2525 -2 -1 -15 -4 -30 -6z"/>
<path d="M10488 8001 c-2 -1373 -2 -2508 0 -2523 3 -24 8 -28 33 -28 l29 0 0
2519 0 2519 -30 4 -30 5 -2 -2496z"/>
<path d="M10675 10492 c-3 -3 -5 -1139 -5 -2524 l0 -2518 30 0 30 0 0 2519 0
2519 -25 4 c-13 3 -27 3 -30 0z"/>
<path d="M10773 10493 c-10 -4 -13 -518 -13 -2524 l0 -2519 30 0 c26 0 30 4
30 28 0 15 1 1149 3 2520 1 1370 0 2492 -3 2493 -3 0 -12 2 -20 3 -8 2 -21 1
-27 -1z"/>
<path d="M10855 10492 c-3 -3 -5 -1139 -5 -2524 l0 -2518 35 0 35 0 0 2519 0
2519 -30 4 c-17 3 -32 2 -35 0z"/>
<path d="M10960 10493 c-13 -3 -15 -290 -13 -2521 l3 -2517 30 -3 30 -3 0
2519 c0 2391 -1 2520 -17 2524 -10 2 -25 3 -33 1z"/>
<path d="M12403 10492 l-23 -3 0 -2520 0 -2519 30 0 c26 0 30 4 30 28 3 1838
-2 5008 -8 5012 -4 3 -17 4 -29 2z"/>
<path d="M12493 10493 c-10 -4 -13 -517 -13 -2524 l0 -2519 30 0 30 0 0 2519
c0 2390 -1 2519 -17 2523 -10 3 -24 3 -30 1z"/>
<path d="M12588 10492 c-17 -3 -18 -132 -18 -2523 l0 -2519 30 0 30 0 0 2519
c0 2006 -3 2520 -12 2523 -7 2 -21 3 -30 0z"/>
<path d="M12750 7972 l0 -2523 30 3 30 3 3 2517 2 2516 -32 4 -33 4 0 -2524z"/>
<path d="M12868 10492 l-28 -3 0 -2520 0 -2519 35 0 35 0 0 2519 c0 1386 -3
2521 -7 2523 -5 2 -20 2 -35 0z"/>
<path d="M12945 10493 c-7 -2 -9 -906 -8 -2495 2 -1371 3 -2505 3 -2520 0 -24
4 -28 30 -28 l30 0 0 2519 0 2519 -23 4 c-12 2 -27 3 -32 1z"/>
<path d="M14388 10492 l-28 -3 0 -2520 0 -2519 35 0 35 0 0 2519 c0 1386 -3
2521 -7 2523 -5 2 -20 2 -35 0z"/>
<path d="M14465 10494 c-7 -3 -9 -842 -8 -2496 2 -1371 3 -2505 3 -2520 0 -24
4 -28 30 -28 l30 0 0 2520 c0 1386 -3 2520 -7 2521 -5 0 -15 2 -23 3 -8 2 -19
2 -25 0z"/>
<path d="M14573 10492 l-23 -3 0 -2520 0 -2519 30 0 30 0 0 2519 c0 1386 -3
2521 -7 2523 -5 2 -18 2 -30 0z"/>
<path d="M14838 10492 c-17 -3 -18 -132 -18 -2523 l0 -2519 35 0 35 0 0 2519
c0 2390 -1 2519 -17 2523 -10 2 -26 2 -35 0z"/>
<path d="M14923 10493 c-10 -4 -13 -518 -13 -2524 0 -2512 0 -2519 20 -2519
20 0 20 7 20 2519 0 1386 -3 2522 -7 2524 -5 2 -14 2 -20 0z"/>
<path d="M16368 10492 c-17 -3 -18 -132 -18 -2523 l0 -2519 35 0 35 0 0 2519
c0 2390 -1 2519 -17 2523 -10 2 -26 2 -35 0z"/>
<path d="M16473 10492 l-23 -3 0 -2510 c0 -1380 -1 -2512 -2 -2516 -2 -5 12
-9 30 -11 l32 -3 0 2520 c0 1386 -3 2521 -7 2523 -5 2 -18 2 -30 0z"/>
<path d="M16544 10491 c-2 -2 -4 -1138 -4 -2523 l0 -2518 30 0 30 0 0 2523 0
2522 -26 0 c-14 0 -28 -2 -30 -4z"/>
<path d="M16653 10492 l-23 -3 0 -2520 0 -2519 30 0 30 0 0 2519 c0 1386 -3
2521 -7 2523 -5 2 -18 2 -30 0z"/>
<path d="M2840 7970 c0 -2233 2 -2520 15 -2520 13 0 15 287 15 2520 0 2233 -2
2520 -15 2520 -13 0 -15 -287 -15 -2520z"/>
<path d="M3350 7970 l0 -2520 30 0 c22 0 30 5 30 18 0 9 1 1143 3 2519 l2
2503 -32 0 -33 0 0 -2520z"/>
<path d="M3440 7970 l0 -2520 30 0 c30 0 32 3 32 40 0 11 0 1141 -1 2510 l-1
2490 -30 0 -30 0 0 -2520z"/>
<path d="M3530 7970 c0 -2233 2 -2520 15 -2520 13 0 15 287 15 2520 0 2233 -2
2520 -15 2520 -13 0 -15 -287 -15 -2520z"/>
<path d="M4620 7969 c0 -2395 1 -2520 18 -2517 9 2 16 7 15 11 -2 4 -3 1137
-3 2517 0 2224 -2 2510 -15 2510 -13 0 -15 -287 -15 -2521z"/>
<path d="M4950 7970 l0 -2520 30 0 c22 0 30 5 30 18 0 9 1 1143 3 2519 l2
2503 -32 0 -33 0 0 -2520z"/>
<path d="M5140 7970 l0 -2520 30 0 30 0 0 2520 0 2520 -30 0 -30 0 0 -2520z"/>
<path d="M5320 7970 c0 -2233 2 -2520 15 -2520 13 0 15 287 15 2520 0 2233 -2
2520 -15 2520 -13 0 -15 -287 -15 -2520z"/>
<path d="M6410 7970 c0 -2233 2 -2520 15 -2520 13 0 15 287 15 2520 0 2233 -2
2520 -15 2520 -13 0 -15 -287 -15 -2520z"/>
<path d="M6740 7970 l0 -2520 30 0 30 0 0 2520 0 2520 -30 0 -30 0 0 -2520z"/>
<path d="M7107 7973 c3 -2236 4 -2518 18 -2521 13 -3 15 274 15 2517 0 2394
-1 2521 -17 2521 -17 0 -18 -126 -16 -2517z"/>
<path d="M8400 7970 c0 -2233 2 -2520 15 -2520 13 0 15 287 15 2520 0 2233 -2
2520 -15 2520 -13 0 -15 -287 -15 -2520z"/>
<path d="M8450 7970 l0 -2520 35 0 35 0 0 2520 0 2520 -35 0 -35 0 0 -2520z"/>
<path d="M8640 7970 l0 -2520 30 0 30 0 0 2520 0 2520 -30 0 -30 0 0 -2520z"/>
<path d="M8820 7970 l0 -2520 30 0 30 0 0 2520 0 2520 -30 0 -30 0 0 -2520z"/>
<path d="M9100 7970 c0 -2233 2 -2520 15 -2520 13 0 15 287 15 2520 0 2233 -2
2520 -15 2520 -13 0 -15 -287 -15 -2520z"/>
<path d="M10340 7970 c0 -2233 2 -2520 15 -2520 13 0 15 287 15 2520 0 2233
-2 2520 -15 2520 -13 0 -15 -287 -15 -2520z"/>
<path d="M10390 7970 l0 -2520 30 0 c22 0 30 5 30 18 0 9 1 1143 3 2519 l2
2503 -32 0 -33 0 0 -2520z"/>
<path d="M10578 7987 c-2 -1377 -2 -2511 0 -2520 2 -11 13 -17 33 -17 l29 0 0
2520 0 2520 -30 0 -30 0 -2 -2503z"/>
<path d="M11040 7970 c0 -2233 2 -2520 15 -2520 13 0 15 287 15 2520 0 2233
-2 2520 -15 2520 -13 0 -15 -287 -15 -2520z"/>
<path d="M12330 7970 c0 -2233 2 -2520 15 -2520 13 0 15 287 15 2520 0 2233
-2 2520 -15 2520 -13 0 -15 -287 -15 -2520z"/>
<path d="M12660 7970 l0 -2520 30 0 30 0 0 2520 0 2520 -30 0 -30 0 0 -2520z"/>
<path d="M13028 7980 c-2 -1381 -1 -2515 0 -2520 2 -6 10 -10 18 -10 12 0 14
353 14 2520 0 2230 -2 2520 -15 2520 -13 0 -15 -290 -17 -2510z"/>
<path d="M14217 7988 c2 -1377 3 -2511 3 -2520 0 -10 7 -18 15 -18 13 0 15
287 15 2520 0 2393 -1 2520 -17 2520 -17 0 -18 -125 -16 -2502z"/>
<path d="M14270 7969 l0 -2520 30 3 30 3 3 2518 2 2517 -32 0 -33 0 0 -2521z"/>
<path d="M14640 7970 l0 -2520 30 0 30 0 0 2520 0 2520 -30 0 -30 0 0 -2520z"/>
<path d="M14730 7970 l0 -2520 30 0 30 0 0 2520 0 2520 -30 0 -30 0 0 -2520z"/>
<path d="M16208 7987 c-2 -1377 -2 -2511 0 -2520 2 -9 10 -17 18 -17 12 0 14
344 14 2520 0 2230 -2 2520 -15 2520 -13 0 -15 -289 -17 -2503z"/>
<path d="M16260 7970 l0 -2520 30 0 30 0 0 2520 0 2520 -30 0 -30 0 0 -2520z"/>
<path d="M16720 7970 l0 -2520 30 0 c30 0 32 3 32 40 0 11 0 1141 -1 2510 l-1
2490 -30 0 -30 0 0 -2520z"/>
<path d="M16810 7970 l0 -2520 35 0 35 0 0 2520 0 2520 -35 0 -35 0 0 -2520z"/>
<path d="M16900 7970 c0 -2513 0 -2520 20 -2520 20 0 20 7 20 2520 0 2513 0
2520 -20 2520 -20 0 -20 -7 -20 -2520z"/>
<path d="M2790 5405 l0 -25 405 0 405 0 0 25 0 25 -405 0 -405 0 0 -25z"/>
<path d="M4570 5405 l0 -25 410 0 410 0 0 25 0 25 -410 0 -410 0 0 -25z"/>
<path d="M6360 5405 l0 -25 409 0 c384 0 409 1 406 18 -2 9 -4 20 -4 25 -1 4
-183 7 -406 7 l-405 0 0 -25z"/>
<path d="M8350 5405 l0 -25 409 0 408 0 -5 25 -4 25 -404 0 -404 0 0 -25z"/>
<path d="M10290 5405 l0 -25 408 2 c399 3 407 3 407 23 0 20 -8 20 -407 23
l-408 2 0 -25z"/>
<path d="M12280 5405 l0 -25 409 0 c384 0 409 1 406 18 -2 9 -4 20 -4 25 -1 4
-183 7 -406 7 l-405 0 0 -25z"/>
<path d="M14168 5424 c-3 -3 -4 -14 -1 -25 5 -18 18 -19 408 -19 390 0 403 1
408 19 3 11 2 22 -1 25 -7 8 -807 8 -814 0z"/>
<path d="M16160 5405 l0 -25 405 0 405 0 0 25 0 25 -405 0 -405 0 0 -25z"/>
<path d="M2720 5295 l0 -65 -295 0 -295 0 -2 -177 -3 -178 -172 -3 -173 -2 0
-160 0 -160 -150 0 -149 0 -3 -152 -3 -153 -127 -3 -128 -3 0 -169 0 -170
8710 0 8710 0 0 170 0 170 -167 2 -168 3 -3 153 -3 152 -184 0 -185 0 0 160 0
160 -135 0 -135 0 0 180 0 180 -312 2 -313 3 -3 63 -3 62 -464 0 -465 0 -1
-22 c0 -13 -1 -41 -2 -63 l-2 -40 -525 0 -525 0 0 60 0 60 -467 3 -467 2 -3
-62 -3 -63 -472 -3 -473 -2 0 65 0 65 -470 0 -470 0 -1 -22 c0 -13 -1 -41 -2
-63 l-2 -40 -522 -3 -523 -2 0 65 0 65 -470 0 -470 0 -1 -27 c0 -16 -1 -44 -2
-63 l-2 -35 -497 -3 -498 -2 0 65 0 65 -470 0 -470 0 -1 -42 c-1 -24 -2 -52
-3 -63 -1 -20 -9 -20 -523 -23 l-523 -2 0 65 0 65 -470 0 -470 0 -1 -22 c0
-13 -1 -41 -2 -63 l-2 -40 -422 -3 -423 -2 0 65 0 65 -470 0 -470 0 0 -65 0
-65 -422 2 -423 3 -2 40 c-1 22 -2 50 -2 63 l-1 22 -470 0 -470 0 0 -65z
m14888 -262 l3 -143 -7716 0 -7715 0 0 145 0 145 7713 -2 7712 -3 3 -142z
m270 -330 l-3 -118 -8017 -3 -8018 -2 0 120 0 120 8020 0 8021 0 -3 -117z
m372 -323 l0 -120 -8360 0 -8360 0 0 120 0 120 8360 0 8360 0 0 -120z m340
-310 l0 -120 -8660 0 -8660 0 0 120 0 120 8660 0 8660 0 0 -120z"/>
</g>
</svg>
